<?xml version="1.0" encoding="UTF-8" standalone="no"?>
<!DOCTYPE svg PUBLIC "-//W3C//DTD SVG 1.1//EN" "http://www.w3.org/Graphics/SVG/1.1/DTD/svg11.dtd">
<svg width="100%" height="100%" viewBox="0 0 800 800" version="1.1" xmlns="http://www.w3.org/2000/svg" xmlns:xlink="http://www.w3.org/1999/xlink" xml:space="preserve" xmlns:serif="http://www.serif.com/" style="fill-rule:evenodd;clip-rule:evenodd;stroke-linejoin:round;stroke-miterlimit:2;">
    <g transform="matrix(2.258665,0,0,2.258665,-81.928972,-67.460033)">
        <path d="M127.5,121.801C198.895,121.801 198.9,121.786 199.362,121.923C200.74,122.332 200.497,123.724 200.497,134.5C200.497,304.286 200.501,304.282 200.469,304.496C200.226,306.115 198.685,306.18 198.476,306.189C198.064,306.207 162.607,306.199 162.514,306.195C159.979,306.106 160.202,304.56 160.202,302.5C160.184,158.384 160.294,158.359 160.08,157.637C159.67,156.254 158.281,156.497 147.5,156.497C95.023,156.497 95.018,156.511 94.532,156.389C92.939,155.989 93.202,155.335 93.202,143.5C93.202,123.155 93.147,123.075 93.546,122.53C94.178,121.665 94.803,121.801 109.5,121.801L127.5,121.801Z" style="fill:rgb(254,254,254);"/>
        <path d="M235.034,137.5C235.034,131.747 235.034,124.535 235.035,124.491C235.051,122.733 234.859,122.316 236.547,121.829C236.771,121.765 328.685,121.822 330.499,121.798C332.734,121.768 333.958,121.322 333.43,123.48C333.382,123.678 323.725,142.992 322.877,144.687C319.695,151.051 317.746,155.743 316.398,156.249C315.658,156.527 315.638,156.498 240.5,156.497C236.594,156.497 234.84,157.398 234.965,153.497C235.044,151.047 235.034,151.066 235.034,137.5Z" style="fill:white;"/>
        <path d="M297.697,202.599C294.03,209.932 290.363,217.265 286.697,224.599C285.036,227.91 285.198,228.786 281.501,228.797C277.979,228.808 239.719,228.923 237.48,228.792C234.659,228.628 235.202,226.913 235.202,220.5C235.202,195.501 235.124,195.351 235.737,194.737C236.351,194.123 236.502,194.202 261.5,194.202C273.167,194.202 284.833,194.202 296.5,194.202C296.827,194.201 300.351,194.192 300.579,194.371C301.606,195.172 301.291,195.419 300.729,196.589C300.496,197.075 300.471,197.051 297.697,202.599Z" style="fill:white;"/>
    </g>
</svg>
