<?xml version="1.0" encoding="UTF-8" standalone="no"?>
<!DOCTYPE svg PUBLIC "-//W3C//DTD SVG 1.1//EN" "http://www.w3.org/Graphics/SVG/1.1/DTD/svg11.dtd">
<svg width="100%" height="100%" viewBox="0 0 800 800" version="1.1" xmlns="http://www.w3.org/2000/svg" xmlns:xlink="http://www.w3.org/1999/xlink" xml:space="preserve" xmlns:serif="http://www.serif.com/" style="fill-rule:evenodd;clip-rule:evenodd;stroke-linejoin:round;stroke-miterlimit:2;">
    <g>
        <g transform="matrix(1,0,0,1,142,152)">
            <path d="M441.008,78.969C446.704,85.283 446.848,85.132 452.431,91.559C497.364,143.281 507.273,199.85 508.369,204.532C510.561,213.895 511.999,226.605 512.218,228.538C512.411,230.245 513.683,237.571 514.024,258.497C514.046,259.831 513.793,268.628 513.768,269.509C513.738,270.553 513.67,270.539 512.846,282.531C512.774,283.571 512.674,283.549 511.232,295.46C510.49,301.588 507.098,321.765 499.13,344.37C494.301,358.068 487.312,371.987 486.14,374.321C482.805,380.963 477.179,390.595 475.305,393.376C472.276,397.872 472.436,397.957 469.382,402.417C467.815,404.706 458.132,419.571 438.053,440.036C437.931,440.16 430.945,446.732 430.327,447.314C428.087,449.422 415.316,460.388 408.77,464.882C407.087,466.037 381.343,485.983 344.664,498.969C316.978,508.772 294.132,512.083 276.477,513.219C275.385,513.289 228.879,518.534 176.424,500.726C173.197,499.63 154.887,493.414 137.306,483.863C135.546,482.907 127.385,478.473 115.833,471.009C114.356,470.054 111.041,467.617 110.63,467.314C109.263,466.309 106.763,464.752 102.582,461.395C101.787,460.757 87.893,450.47 73.559,435.443C62.662,424.019 59.076,419.145 52.39,410.583C51.406,409.323 45.903,401.368 45.35,400.603C42.218,396.269 30.171,376.848 23.361,360.563C22.891,359.438 21.394,356.611 16.578,343.473C13.159,334.147 6.93,312.283 4.768,295.46C3.551,285.99 3.395,286.023 2.781,276.477C2.706,275.302 1.613,268.062 2.232,246.491C2.29,244.485 3.477,229.286 4.324,223.476C8.121,197.419 14.261,172.744 29.86,141.679C37.607,126.25 48.994,109.572 54.605,102.582C56.586,100.114 58.552,97.287 62.648,92.627C62.897,92.344 74.045,78.788 89.413,65.399C93.966,61.433 93.968,61.47 98.642,57.681C118.398,41.665 141.352,29.45 152.563,24.64C160.417,21.27 160.362,21.178 168.361,18.133C180.04,13.688 193.579,9.963 202.412,8.097C209.616,6.576 221.033,3.971 239.523,2.781C243.812,2.505 243.792,2.197 256.49,2.053C295.936,1.606 327.721,11.649 329.595,12.151C343.585,15.904 371.984,26.359 398.302,43.813C405.938,48.878 415.941,55.998 427.653,66.322C430.845,69.135 430.782,69.181 433.864,72.118C440.188,78.143 440.204,78.123 441.008,78.969L91.013,106.054C86.723,110.758 86.789,110.796 82.678,115.646C78.788,120.237 73.103,128.248 72.307,129.37C63.554,141.704 54.859,158.402 51.412,166.459C46.004,179.099 43.374,186.356 39.447,200.486C38.51,203.86 37.43,208.723 37.27,209.442C35.384,217.935 33.257,233.048 33.121,235.466C32.92,239.055 29.605,266.866 35.718,298.458C36.385,301.904 37.572,311.135 43.934,330.358C54.058,360.949 71.962,388.685 87.695,406.33C94.001,413.404 95.681,415.39 105.439,424.565C109.635,428.51 115.784,433.487 116.708,434.234C130.556,445.443 144.712,453.43 147.282,454.881C150.089,456.464 160.531,462.781 180.576,470.296C203.205,478.78 225.55,481.628 229.548,482.138C241.954,483.72 251.274,484.243 267.509,483.816C268.468,483.791 268.449,483.782 279.468,483.015C279.73,482.996 306.069,480.746 331.55,471.642C334.316,470.653 347.17,466.572 365.597,456.679C379.711,449.101 396.167,437.358 405.276,429.243C408.437,426.427 427.649,410.411 444.92,384.792C452.483,373.572 461.311,359.39 470.296,335.424C481.14,306.5 482.895,280.372 483.224,275.477C483.525,270.984 483.808,271.013 483.935,260.511C484.329,227.749 477.677,204.721 474.852,194.401C474.032,191.405 468.747,175.069 467.589,174.398C466.512,173.774 466.423,173.854 441.5,173.854C408.866,173.854 398.31,173.63 386.529,175.675C385.972,175.772 385.968,175.681 379.54,176.744C374.998,177.495 375.015,177.498 370.545,178.665C367.916,179.351 362.322,180.746 361.606,180.924C360.501,181.2 347.348,185.594 340.657,188.827C328.654,194.628 327.441,195.27 323.637,197.726C317.899,201.43 317.638,201.003 312.224,205.132C311.448,205.724 311.414,205.659 302.449,212.437C300.98,213.548 294.452,219.726 294.084,220.042C288.909,224.487 289.143,224.708 280.32,234.338C277.894,236.986 273.311,243.529 270.334,247.377C268.648,249.557 267.325,252.178 263.846,257.709C262.99,259.07 259.794,264.15 254.612,275.555C253.051,278.99 248.327,291.23 247.083,296.398C245.121,304.549 244.061,305.587 242.052,320.437C241.478,324.678 241.149,324.633 240.844,332.52C240.297,346.684 239.438,348.414 238.825,349.65C238.407,350.494 238.055,352.05 234.902,354.938C230.844,358.655 223.562,359.894 218.294,356.887C213.333,354.056 212.557,351.666 201.729,339.304C201.054,338.534 201.12,338.494 193.428,329.561C184.86,319.611 184.998,319.522 176.4,309.585C175.435,308.469 175.5,308.446 164.44,295.551C161.677,292.329 158.2,288.152 155.716,285.316C155.4,284.955 142,269.197 141.955,269.136C136.76,262.282 136.489,262.502 131.609,255.423C123.673,243.914 120.773,238.894 112.951,222.295C112.943,222.279 108.84,212.614 106.826,206.395C101.138,188.836 101.404,186.685 99.402,177.521C99.31,177.099 99.326,177.116 97.83,166.453C96.274,155.356 95.875,135.9 97.65,122.518C97.84,121.082 97.762,118.527 99.65,108.528C100.399,104.564 100.065,104.493 102.173,97.447C102.267,97.132 102.484,96.824 102.44,96.498C102.412,96.29 102.109,96.231 101.985,96.061C101.787,95.787 101.811,95.271 101.487,95.178C101.078,95.061 99.8,96.853 96.319,100.317C92.464,104.154 92.579,104.239 91.013,106.054L441.008,78.969L410.035,90.996C396.285,78.82 391.255,75.809 388.392,73.649C380.828,67.942 365.754,59.16 357.629,55.223C355.663,54.27 344.204,48.717 332.448,44.64C288.076,29.253 245.228,29.721 211.585,36.878C192.226,40.997 180.944,45.746 176.428,47.307C172.194,48.77 150.667,58.35 148.734,60.69C147.976,61.608 142.825,71.621 142.435,72.47C137.395,83.449 131.776,97.943 128.897,115.569C127.424,124.584 127.007,126.838 126.587,139.502C126.354,146.509 126.557,146.491 126.846,153.48C127.14,160.603 127.386,160.563 127.752,163.465C128.65,170.582 128.709,170.552 130.068,177.585C132.446,189.89 136.35,199.687 137.369,202.55C139.799,209.378 141.977,213.246 143.418,216.539C144.525,219.068 147.527,224.27 147.613,224.436C150.628,230.291 155.562,237.114 156.426,238.55C157.649,240.584 160.875,244.523 161.569,245.446C165.618,250.824 165.732,250.718 170.101,255.84C175.63,262.323 175.579,262.347 181.144,268.804C185.331,273.664 185.228,273.731 189.411,278.575C191.306,280.769 207.309,299.568 207.357,299.622C209.701,302.31 209.699,302.292 211.894,305.123C212.558,305.979 212.664,306.212 213.629,305.714C214.545,305.241 214.133,304.944 214.677,302.544C216.228,295.686 217.182,291.202 218.379,287.459C222.471,274.665 223.244,272.846 223.768,271.614C229.632,257.822 229.563,257.797 236.673,244.593C239.147,239.999 247.426,227.642 248.879,225.796C256.522,216.085 256.502,216.074 257.191,215.25C259.011,213.072 259.103,213.17 260.048,212.083C268.835,201.981 272.692,198.889 278.537,193.541C283.867,188.663 285.638,187.691 289.569,184.589C294.966,180.33 295.87,179.793 296.461,179.441C302.501,175.851 303.844,174.007 313.275,169.07C320.642,165.213 320.746,164.73 328.462,161.412C342.167,155.518 342.241,155.738 353.388,152.149C361.285,149.607 374.131,147.051 376.537,146.749C381.587,146.115 388.688,144.546 402.482,144.127C406.242,144.013 421.476,143.55 449.51,143.863C451.282,143.883 452.074,144.251 451.983,142.464C451.964,142.073 451.16,140.893 451.073,140.765C447.752,135.89 447.636,135.175 445.703,132.369C441.593,126.404 436.89,119.797 429.689,111.344C420.034,100.011 412.894,93.737 412.567,93.429C410.212,91.211 410.241,91.188 410.035,90.996L441.008,78.969Z" style="fill:white;fill-opacity:1;"/>
        </g>
        <g transform="matrix(1,0,0,1,142,152)">
            <path d="M336.956,58.011C339.868,60.604 339.837,60.634 342.183,63.736C351.322,75.819 354.367,106.996 299.418,118.109C297.855,118.425 287.618,119.869 285.532,119.963C275.181,120.43 275.197,120.724 267.509,120.321C260.996,119.979 260.973,120.326 254.526,119.32C254.088,119.252 250.527,118.916 248.49,118.565C240.166,117.132 228.239,114.051 220.357,109.786C219.859,109.517 217.762,108.618 216.376,107.704C212.555,105.181 201.594,98.788 198.441,85.513C196.578,77.673 198.312,64.03 213.23,54.108C214.031,53.576 218.565,49.946 227.577,46.712C233.047,44.75 244.194,40.457 265.492,39.344C287.388,38.199 319.806,42.178 336.956,58.011L313.815,78.033C313.448,77.79 312.431,76.939 310.63,76.194C298.705,71.262 294.111,71.137 291.48,70.601C287.514,69.792 287.498,70.059 284.473,69.735C258.005,66.905 238.228,73.761 231.698,77.811C230.46,78.579 229.835,78.095 229.65,79.541C229.511,80.628 229.817,80.573 230.701,81.218C230.93,81.385 232.295,82.382 233.728,83.063C251.643,91.571 278.101,92.14 296.421,88.143C302.363,86.847 310.381,84.046 314.379,81.325C315.396,80.633 315.772,80.706 315.582,79.474C315.47,78.75 313.816,78.033 313.815,78.033L336.956,58.011Z" style="fill:white;fill-opacity:1;"/>
        </g>
    </g>
</svg>
